<?xml version="1.0" encoding="UTF-8"?>
<svg version="1.1" xmlns="http://www.w3.org/2000/svg" width="512" height="512">
<path d="M0 0 C0.96988861 0.00182281 1.93977722 0.00364563 2.9390564 0.00552368 C17.28821045 0.05090947 31.25780259 0.54677062 45.375 3.3125 C46.28797852 3.47878906 47.20095703 3.64507812 48.14160156 3.81640625 C92.74477944 12.0227831 134.43779656 32.29814534 168.375 62.3125 C169.62796875 63.39917969 169.62796875 63.39917969 170.90625 64.5078125 C181.98147413 74.2525714 192.32614912 84.65212414 201.375 96.3125 C202.138125 97.24707031 202.90125 98.18164062 203.6875 99.14453125 C229.53184827 131.40854936 246.00220036 170.83354382 253.375 211.3125 C253.53871094 212.14813477 253.70242188 212.98376953 253.87109375 213.84472656 C259.16156862 241.55413521 258.79178597 273.66343304 253.375 301.3125 C253.20871094 302.22547852 253.04242188 303.13845703 252.87109375 304.07910156 C245.21136923 345.7111228 226.96875117 384.47302206 200.375 417.3125 C199.93494629 417.85696777 199.49489258 418.40143555 199.04150391 418.96240234 C187.56325137 433.03423929 174.79780936 446.24930647 160.375 457.3125 C159.44429688 458.07175781 158.51359375 458.83101563 157.5546875 459.61328125 C125.30331086 485.4721216 85.84985354 501.94044761 45.375 509.3125 C44.53936523 509.47621094 43.70373047 509.63992188 42.84277344 509.80859375 C15.13336479 515.09906862 -16.97593304 514.72928597 -44.625 509.3125 C-45.53797852 509.14621094 -46.45095703 508.97992188 -47.39160156 508.80859375 C-91.99477944 500.6022169 -133.68779656 480.32685466 -167.625 450.3125 C-168.4603125 449.58804687 -169.295625 448.86359375 -170.15625 448.1171875 C-181.23147413 438.3724286 -191.57614912 427.97287586 -200.625 416.3125 C-201.388125 415.37792969 -202.15125 414.44335938 -202.9375 413.48046875 C-228.78184827 381.21645064 -245.25220036 341.79145618 -252.625 301.3125 C-252.78871094 300.47686523 -252.95242187 299.64123047 -253.12109375 298.78027344 C-258.41156862 271.07086479 -258.04178597 238.96156696 -252.625 211.3125 C-252.45871094 210.39952148 -252.29242188 209.48654297 -252.12109375 208.54589844 C-244.46136923 166.9138772 -226.21875117 128.15197794 -199.625 95.3125 C-199.18494629 94.76803223 -198.74489258 94.22356445 -198.29150391 93.66259766 C-186.81325137 79.59076071 -174.04780936 66.37569353 -159.625 55.3125 C-158.69429688 54.55324219 -157.76359375 53.79398438 -156.8046875 53.01171875 C-147.01549585 45.16284002 -136.41203526 38.69332022 -125.625 32.3125 C-124.97337891 31.92320313 -124.32175781 31.53390625 -123.65039062 31.1328125 C-98.02299037 16.0009846 -67.9794143 6.62423846 -38.625 2.3125 C-37.42037109 2.13517334 -36.21574219 1.95784668 -34.97460938 1.77514648 C-23.31732646 0.176175 -11.75313902 -0.0459053 0 0 Z M-94.625 62.3125 C-95.3360791 62.65506836 -96.0471582 62.99763672 -96.77978516 63.35058594 C-108.19352867 68.92371303 -118.47557617 75.69701159 -128.625 83.3125 C-129.55957031 84.01246094 -130.49414062 84.71242187 -131.45703125 85.43359375 C-138.56226964 90.95478869 -145.1075062 97.11929126 -151.625 103.3125 C-152.45386719 104.09882812 -153.28273437 104.88515625 -154.13671875 105.6953125 C-159.78453275 111.19527797 -164.79117709 117.08964752 -169.625 123.3125 C-170.05570801 123.86679688 -170.48641602 124.42109375 -170.93017578 124.9921875 C-195.11293806 156.36441964 -209.70917636 193.06425072 -214.625 232.3125 C-214.75648438 233.3025 -214.88796875 234.2925 -215.0234375 235.3125 C-219.30221511 275.09356748 -210.9671613 315.51899155 -193.625 351.3125 C-193.28243164 352.0235791 -192.93986328 352.7346582 -192.58691406 353.46728516 C-187.01378697 364.88102867 -180.24048841 375.16307617 -172.625 385.3125 C-171.92503906 386.24707031 -171.22507813 387.18164062 -170.50390625 388.14453125 C-164.98271131 395.24976964 -158.81820874 401.7950062 -152.625 408.3125 C-151.44550781 409.55580078 -151.44550781 409.55580078 -150.2421875 410.82421875 C-144.74222203 416.47203275 -138.84785248 421.47867709 -132.625 426.3125 C-132.07070312 426.74320801 -131.51640625 427.17391602 -130.9453125 427.61767578 C-99.57308036 451.80043806 -62.87324928 466.39667636 -23.625 471.3125 C-22.14 471.50972656 -22.14 471.50972656 -20.625 471.7109375 C19.15606748 475.98971511 59.58149155 467.6546613 95.375 450.3125 C96.0860791 449.96993164 96.7971582 449.62736328 97.52978516 449.27441406 C108.94352867 443.70128697 119.22557617 436.92798841 129.375 429.3125 C130.30957031 428.61253906 131.24414062 427.91257812 132.20703125 427.19140625 C139.31226964 421.67021131 145.8575062 415.50570874 152.375 409.3125 C153.20386719 408.52617187 154.03273438 407.73984375 154.88671875 406.9296875 C160.53453275 401.42972203 165.54117709 395.53535248 170.375 389.3125 C171.02106201 388.48105469 171.02106201 388.48105469 171.68017578 387.6328125 C195.86293806 356.26058036 210.45917636 319.56074928 215.375 280.3125 C215.57222656 278.8275 215.57222656 278.8275 215.7734375 277.3125 C220.05221511 237.53143252 211.7171613 197.10600845 194.375 161.3125 C194.03243164 160.6014209 193.68986328 159.8903418 193.33691406 159.15771484 C187.76378697 147.74397133 180.99048841 137.46192383 173.375 127.3125 C172.67503906 126.37792969 171.97507812 125.44335938 171.25390625 124.48046875 C165.73271131 117.37523036 159.56820874 110.8299938 153.375 104.3125 C152.19550781 103.06919922 152.19550781 103.06919922 150.9921875 101.80078125 C145.49222203 96.15296725 139.59785248 91.14632291 133.375 86.3125 C132.82070313 85.88179199 132.26640625 85.45108398 131.6953125 85.00732422 C100.32308036 60.82456194 63.62324928 46.22832364 24.375 41.3125 C23.385 41.18101563 22.395 41.04953125 21.375 40.9140625 C-18.40606748 36.63528489 -58.83149155 44.9703387 -94.625 62.3125 Z " fill="#000000" transform="translate(255.625,-0.3125)"/>
<path d="M0 0 C0.84800649 -0.00453111 1.69601298 -0.00906223 2.56971663 -0.01373065 C5.41003318 -0.02638653 8.25015826 -0.0247535 11.09049988 -0.02310181 C13.12749478 -0.02908633 15.16448741 -0.0358917 17.20147705 -0.04345703 C22.73461163 -0.06113237 28.26768435 -0.06581307 33.80084443 -0.0670886 C38.42057311 -0.0689878 43.04028738 -0.07634562 47.66001052 -0.08343279 C58.56035033 -0.09972032 69.46065711 -0.10460143 80.36100769 -0.10317993 C91.60305788 -0.10197851 102.84491609 -0.1230798 114.0869177 -0.15466726 C123.74057601 -0.18082468 133.39417161 -0.19154744 143.04786509 -0.19026911 C148.81274868 -0.18975931 154.57746168 -0.19545284 160.34230995 -0.21662521 C165.76537428 -0.23599835 171.18810513 -0.2361382 176.61118126 -0.22159195 C178.5993384 -0.21950159 180.58751636 -0.22421821 182.57563782 -0.23631287 C185.29454962 -0.25177932 188.01231359 -0.24244806 190.73120117 -0.22705078 C191.90510704 -0.24248147 191.90510704 -0.24248147 193.10272819 -0.25822389 C199.55363247 -0.17776079 204.74970969 1.79121993 209.6146698 6.08383179 C210.06970886 6.66004272 210.52474792 7.23625366 210.99357605 7.82992554 C211.46666199 8.4087146 211.93974792 8.98750366 212.4271698 9.58383179 C215.70501025 14.47223745 215.04152762 20.64903753 214.55607605 26.26742554 C213.0070105 32.578821 209.28298142 35.6936194 203.97013855 39.13851929 C198.69872253 41.60363131 193.01153245 41.41285843 187.29560852 41.40113831 C186.07131978 41.40453664 186.07131978 41.40453664 184.82229793 41.40800363 C182.09568472 41.41431836 179.36912153 41.41351589 176.64250183 41.41268921 C174.68417802 41.41568226 172.7258548 41.41908512 170.76753235 41.42286682 C165.45346723 41.43169571 160.13941821 41.43404446 154.82534647 41.43468261 C151.50420241 41.43539368 148.18306244 41.43752909 144.8619194 41.44017982 C133.27250153 41.44942921 121.68309515 41.45351518 110.09367371 41.45272827 C99.29529905 41.45212742 88.49697435 41.46268171 77.69861233 41.47847193 C68.42285684 41.49155175 59.14711767 41.49691199 49.87135303 41.49627286 C44.33345399 41.49601803 38.79559935 41.49886139 33.2577095 41.50945091 C28.04893373 41.5191394 22.84024476 41.51920588 17.63146591 41.51193428 C15.7223269 41.51088941 13.81318245 41.51324552 11.90405273 41.51929474 C9.29277053 41.52703141 6.68178681 41.52235881 4.07051086 41.5146637 C3.31971666 41.51980726 2.56892245 41.52495082 1.7953769 41.53025025 C-6.19211444 41.47843411 -13.60040604 40.05176858 -19.44392395 34.26742554 C-23.54588453 29.05224851 -24.0721108 23.59760419 -23.82673645 17.10336304 C-23.08562691 11.61310257 -20.61724927 8.13023707 -16.50642395 4.45492554 C-11.04371289 0.55298907 -6.61373168 -0.02595233 0 0 Z " fill="#000000" transform="translate(160.4439239501953,233.73257446289063)"/>
</svg>
