<svg width="36" height="36" viewBox="0 0 36 36" fill="none" xmlns="http://www.w3.org/2000/svg">
<path d="M3.41663 15.0853C3.41663 11.8636 6.0283 9.25195 9.24996 9.25195H15.9376C16.3243 9.25195 16.6953 9.4056 16.9688 9.67909L23.4062 16.1165C23.6796 16.39 23.8333 16.7609 23.8333 17.1477V26.7519C23.8333 29.9736 21.2216 32.5853 18 32.5853H9.24996C6.02829 32.5853 3.41663 29.9736 3.41663 26.752V15.0853Z" stroke="black" stroke-width="2.1875"/>
<path d="M12.1667 9.25195H11.073V10.3457H12.1667V9.25195ZM16.9689 9.67909L17.7423 8.90569L17.7423 8.90569L16.9689 9.67909ZM23.4063 16.1165L24.1797 15.3431L23.4063 16.1165ZM23.8334 26.7513H22.7397V27.8451H23.8334V26.7513ZM32.1563 10.2825L31.3829 11.0559V11.0559L32.1563 10.2825ZM25.7189 3.8451L26.4923 3.07171L26.4923 3.07171L25.7189 3.8451ZM13.2605 9.25131C13.2605 6.63371 15.3825 4.51172 18.0001 4.51172V2.32422C14.1744 2.32422 11.073 5.42558 11.073 9.25131H13.2605ZM13.2605 9.25195V9.25131H11.073V9.25195H13.2605ZM12.1667 10.3457H15.9377V8.1582H12.1667V10.3457ZM15.9377 10.3457C16.0344 10.3457 16.1271 10.3841 16.1955 10.4525L17.7423 8.90569C17.2637 8.42708 16.6145 8.1582 15.9377 8.1582V10.3457ZM16.1955 10.4525L22.6329 16.8899L24.1797 15.3431L17.7423 8.90569L16.1955 10.4525ZM22.6329 16.8899C22.7013 16.9583 22.7397 17.051 22.7397 17.1477H24.9272C24.9272 16.4708 24.6583 15.8217 24.1797 15.3431L22.6329 16.8899ZM22.7397 17.1477V26.7513H24.9272V17.1477H22.7397ZM26.7501 25.6576H23.8334V27.8451H26.7501V25.6576ZM31.4897 20.918C31.4897 23.5356 29.3677 25.6576 26.7501 25.6576V27.8451C30.5758 27.8451 33.6772 24.7437 33.6772 20.918H31.4897ZM31.4897 11.3137V20.918H33.6772V11.3137H31.4897ZM31.3829 11.0559C31.4513 11.1243 31.4897 11.217 31.4897 11.3137H33.6772C33.6772 10.6368 33.4083 9.98771 32.9297 9.5091L31.3829 11.0559ZM24.9455 4.6185L31.3829 11.0559L32.9297 9.5091L26.4923 3.07171L24.9455 4.6185ZM24.6877 4.51172C24.7844 4.51172 24.8771 4.55013 24.9455 4.6185L26.4923 3.07171C26.0137 2.5931 25.3645 2.32422 24.6877 2.32422V4.51172ZM18.0001 4.51172H24.6877V2.32422H18.0001V4.51172Z" fill="black"/>
<path d="M16.5416 9.60403C16.5416 9.4741 16.6987 9.40904 16.7906 9.50091L23.5843 16.2947C23.6762 16.3865 23.6111 16.5436 23.4812 16.5436H20.9166C18.5004 16.5436 16.5416 14.5849 16.5416 12.1686V9.60403Z" stroke="black" stroke-width="2.1875"/>
<path d="M25.2916 3.77004C25.2916 3.64012 25.4487 3.57505 25.5406 3.66692L32.3343 10.4607C32.4262 10.5526 32.3611 10.7096 32.2312 10.7096H29.6666C27.2504 10.7096 25.2916 8.75088 25.2916 6.33464V3.77004Z" stroke="black" stroke-width="2.1875"/>
</svg>
