<svg width="35" height="35" viewBox="0 0 35 35" fill="none" xmlns="http://www.w3.org/2000/svg">
<path d="M2.91663 14.5853C2.91663 11.3636 5.5283 8.75195 8.74996 8.75195H15.4376C15.8243 8.75195 16.1953 8.9056 16.4688 9.17909L22.9062 15.6165C23.1796 15.89 23.3333 16.2609 23.3333 16.6477V26.2519C23.3333 29.4736 20.7216 32.0853 17.5 32.0853H8.74996C5.52829 32.0853 2.91663 29.4736 2.91663 26.252V14.5853Z" stroke="black" stroke-width="2.1875"/>
<path d="M11.6667 8.75195H10.573V9.8457H11.6667V8.75195ZM16.4689 9.17909L17.2423 8.40569L17.2423 8.40569L16.4689 9.17909ZM22.9063 15.6165L23.6797 14.8431L22.9063 15.6165ZM23.3334 26.2513H22.2397V27.3451H23.3334V26.2513ZM31.6563 9.7825L30.8829 10.5559V10.5559L31.6563 9.7825ZM25.2189 3.3451L25.9923 2.57171L25.9923 2.57171L25.2189 3.3451ZM12.7605 8.75131C12.7605 6.13371 14.8825 4.01172 17.5001 4.01172V1.82422C13.6744 1.82422 10.573 4.92558 10.573 8.75131H12.7605ZM12.7605 8.75195V8.75131H10.573V8.75195H12.7605ZM11.6667 9.8457H15.4377V7.6582H11.6667V9.8457ZM15.4377 9.8457C15.5344 9.8457 15.6271 9.88411 15.6955 9.95249L17.2423 8.40569C16.7637 7.92708 16.1145 7.6582 15.4377 7.6582V9.8457ZM15.6955 9.95249L22.1329 16.3899L23.6797 14.8431L17.2423 8.40569L15.6955 9.95249ZM22.1329 16.3899C22.2013 16.4583 22.2397 16.551 22.2397 16.6477H24.4272C24.4272 15.9708 24.1583 15.3217 23.6797 14.8431L22.1329 16.3899ZM22.2397 16.6477V26.2513H24.4272V16.6477H22.2397ZM26.2501 25.1576H23.3334V27.3451H26.2501V25.1576ZM30.9897 20.418C30.9897 23.0356 28.8677 25.1576 26.2501 25.1576V27.3451C30.0758 27.3451 33.1772 24.2437 33.1772 20.418H30.9897ZM30.9897 10.8137V20.418H33.1772V10.8137H30.9897ZM30.8829 10.5559C30.9513 10.6243 30.9897 10.717 30.9897 10.8137H33.1772C33.1772 10.1368 32.9083 9.48771 32.4297 9.0091L30.8829 10.5559ZM24.4455 4.1185L30.8829 10.5559L32.4297 9.0091L25.9923 2.57171L24.4455 4.1185ZM24.1877 4.01172C24.2844 4.01172 24.3771 4.05013 24.4455 4.1185L25.9923 2.57171C25.5137 2.0931 24.8645 1.82422 24.1877 1.82422V4.01172ZM17.5001 4.01172H24.1877V1.82422H17.5001V4.01172Z" fill="black"/>
<path d="M9 21H17" stroke="black" stroke-width="2" stroke-linecap="round"/>
<path d="M13 17L13 25" stroke="black" stroke-width="2" stroke-linecap="round"/>
<path d="M16.0416 9.10403C16.0416 8.9741 16.1987 8.90904 16.2906 9.00091L23.0843 15.7947C23.1762 15.8865 23.1111 16.0436 22.9812 16.0436H20.4166C18.0004 16.0436 16.0416 14.0849 16.0416 11.6686V9.10403Z" stroke="black" stroke-width="2.1875"/>
<path d="M24.7916 3.27004C24.7916 3.14012 24.9487 3.07505 25.0406 3.16692L31.8343 9.96068C31.9262 10.0526 31.8611 10.2096 31.7312 10.2096H29.1666C26.7504 10.2096 24.7916 8.25088 24.7916 5.83464V3.27004Z" stroke="black" stroke-width="2.1875"/>
</svg>
