<svg width="100" height="100" viewBox="0 0 100 100" fill="none" xmlns="http://www.w3.org/2000/svg">
<path fill-rule="evenodd" clip-rule="evenodd" d="M82.3659 21.3293V82.3659H21.3293C19.7742 82.3659 18.5122 83.6279 18.5122 85.1829C18.5122 86.738 19.7742 88 21.3293 88H85.1829C86.738 88 88 86.738 88 85.1829V21.3293C88 19.7742 86.738 18.5122 85.1829 18.5122C83.6279 18.5122 82.3659 19.7742 82.3659 21.3293ZM76.7317 17.5732C76.7317 15.8303 76.0387 14.1589 74.8067 12.925C73.5728 11.693 71.9014 11 70.1585 11H17.5732C15.8303 11 14.1589 11.693 12.925 12.925C11.693 14.1589 11 15.8303 11 17.5732V70.1585C11 71.9014 11.693 73.5728 12.925 74.8067C14.1589 76.0387 15.8303 76.7317 17.5732 76.7317H70.1585C71.9014 76.7317 73.5728 76.0387 74.8067 74.8067C76.0387 73.5728 76.7317 71.9014 76.7317 70.1585V17.5732ZM71.0976 17.5732V70.1585C71.0976 70.4083 70.998 70.6468 70.8234 70.8234C70.6468 70.998 70.4083 71.0976 70.1585 71.0976H17.5732C17.3234 71.0976 17.0849 70.998 16.9083 70.8234C16.7337 70.6468 16.6341 70.4083 16.6341 70.1585V17.5732C16.6341 17.3234 16.7337 17.0849 16.9083 16.9083C17.0849 16.7337 17.3234 16.6341 17.5732 16.6341H70.1585C70.4083 16.6341 70.6468 16.7337 70.8234 16.9083C70.998 17.0849 71.0976 17.3234 71.0976 17.5732ZM41.0488 41.0488H32.5976C31.0425 41.0488 29.7805 42.3108 29.7805 43.8659C29.7805 45.4209 31.0425 46.6829 32.5976 46.6829H41.0488V55.1341C41.0488 56.6892 42.3108 57.9512 43.8659 57.9512C45.4209 57.9512 46.6829 56.6892 46.6829 55.1341V46.6829H55.1341C56.6892 46.6829 57.9512 45.4209 57.9512 43.8659C57.9512 42.3108 56.6892 41.0488 55.1341 41.0488H46.6829V32.5976C46.6829 31.0425 45.4209 29.7805 43.8659 29.7805C42.3108 29.7805 41.0488 31.0425 41.0488 32.5976V41.0488Z" fill="#32237E"/>
</svg>
