<svg width="100" height="100" viewBox="0 0 100 100" fill="none" xmlns="http://www.w3.org/2000/svg">
<path d="M78.2885 14.0769H69.1154V13.0577C69.1154 11.3862 67.7292 10 66.0577 10C64.3862 10 63 11.3862 63 13.0577V14.0769H36.5V13.0577C36.5 11.3862 35.1138 10 33.4423 10C31.7708 10 30.3846 11.3862 30.3846 13.0577V14.0769H21.2115C15.0146 14.0769 10 19.0915 10 25.2885V78.2885C10 84.4854 15.0146 89.5 21.2115 89.5H78.2885C84.4854 89.5 89.5 84.4854 89.5 78.2885V25.2885C89.5 19.0915 84.4854 14.0769 78.2885 14.0769ZM21.2115 20.1923H30.3846V21.2115C30.3846 22.8831 31.7708 24.2692 33.4423 24.2692C35.1138 24.2692 36.5 22.8831 36.5 21.2115V20.1923H63V21.2115C63 22.8831 64.3862 24.2692 66.0577 24.2692C67.7292 24.2692 69.1154 22.8831 69.1154 21.2115V20.1923H78.2885C81.1015 20.1923 83.3846 22.4754 83.3846 25.2885V34.4615H16.1154V25.2885C16.1154 22.4754 18.3985 20.1923 21.2115 20.1923ZM78.2885 83.3846H21.2115C18.3985 83.3846 16.1154 81.1015 16.1154 78.2885V40.5769H83.3846V78.2885C83.3846 81.1015 81.1015 83.3846 78.2885 83.3846Z" fill="#32237E"/>
<path d="M33.442 50.769H25.2882C23.6166 50.769 22.2305 52.1552 22.2305 53.8267C22.2305 55.4983 23.6166 56.8844 25.2882 56.8844H33.442C35.1135 56.8844 36.4997 55.4983 36.4997 53.8267C36.4997 52.1552 35.1135 50.769 33.442 50.769ZM53.8266 50.769H45.6728C44.0012 50.769 42.6151 52.1552 42.6151 53.8267C42.6151 55.4983 44.0012 56.8844 45.6728 56.8844H53.8266C55.4982 56.8844 56.8843 55.4983 56.8843 53.8267C56.8843 52.1552 55.4982 50.769 53.8266 50.769ZM74.2112 50.769H66.0574C64.3859 50.769 62.9997 52.1552 62.9997 53.8267C62.9997 55.4983 64.3859 56.8844 66.0574 56.8844H74.2112C75.8828 56.8844 77.2689 55.4983 77.2689 53.8267C77.2689 52.1552 75.8828 50.769 74.2112 50.769ZM33.442 67.0767H25.2882C23.6166 67.0767 22.2305 68.4629 22.2305 70.1344C22.2305 71.806 23.6166 73.1921 25.2882 73.1921H33.442C35.1135 73.1921 36.4997 71.806 36.4997 70.1344C36.4997 68.4629 35.1135 67.0767 33.442 67.0767ZM53.8266 67.0767H45.6728C44.0012 67.0767 42.6151 68.4629 42.6151 70.1344C42.6151 71.806 44.0012 73.1921 45.6728 73.1921H53.8266C55.4982 73.1921 56.8843 71.806 56.8843 70.1344C56.8843 68.4629 55.4982 67.0767 53.8266 67.0767ZM74.2112 67.0767H66.0574C64.3859 67.0767 62.9997 68.4629 62.9997 70.1344C62.9997 71.806 64.3859 73.1921 66.0574 73.1921H74.2112C75.8828 73.1921 77.2689 71.806 77.2689 70.1344C77.2689 68.4629 75.8828 67.0767 74.2112 67.0767Z" fill="#32237E"/>
</svg>
