<svg width="100" height="100" viewBox="0 0 100 100" fill="none" xmlns="http://www.w3.org/2000/svg">
<path d="M78.2885 14.0769H69.1154V13.0577C69.1154 11.3862 67.7292 10 66.0577 10C64.3862 10 63 11.3862 63 13.0577V14.0769H36.5V13.0577C36.5 11.3862 35.1138 10 33.4423 10C31.7708 10 30.3846 11.3862 30.3846 13.0577V14.0769H21.2115C15.0146 14.0769 10 19.0915 10 25.2885V78.2885C10 84.4854 15.0146 89.5 21.2115 89.5H78.2885C84.4854 89.5 89.5 84.4854 89.5 78.2885V25.2885C89.5 19.0915 84.4854 14.0769 78.2885 14.0769ZM21.2115 20.1923H30.3846V21.2115C30.3846 22.8831 31.7708 24.2692 33.4423 24.2692C35.1138 24.2692 36.5 22.8831 36.5 21.2115V20.1923H63V21.2115C63 22.8831 64.3862 24.2692 66.0577 24.2692C67.7292 24.2692 69.1154 22.8831 69.1154 21.2115V20.1923H78.2885C81.1015 20.1923 83.3846 22.4754 83.3846 25.2885V34.4615H16.1154V25.2885C16.1154 22.4754 18.3985 20.1923 21.2115 20.1923ZM78.2885 83.3846H21.2115C18.3985 83.3846 16.1154 81.1015 16.1154 78.2885V40.5769H83.3846V78.2885C83.3846 81.1015 81.1015 83.3846 78.2885 83.3846Z" fill="#32237E"/>
<path d="M62.7387 56.1558L55.2309 55.0649L51.8733 48.2616C51.0431 46.5799 48.6378 46.579 47.8073 48.2616L44.4497 55.0649L36.9419 56.1558C35.0859 56.4253 34.3418 58.7131 35.6854 60.0228L41.118 65.3184L39.8356 72.7959C39.5188 74.6438 41.4635 76.059 43.125 75.1859L49.8403 71.6554L56.5556 75.1857C58.2206 76.0608 60.1612 74.6403 59.845 72.7958L58.5626 65.3183L63.9952 60.0226C65.3379 58.7139 64.5957 56.4255 62.7387 56.1558ZM54.5441 62.9033C54.0097 63.4242 53.7659 64.1746 53.8921 64.91L54.5996 69.0346L50.8954 67.0872C50.2348 66.74 49.446 66.74 48.7853 67.0872L45.0812 69.0346L45.7887 64.91C45.9149 64.1746 45.6711 63.4242 45.1367 62.9033L42.14 59.9823L46.2814 59.3806C47.0199 59.2733 47.658 58.8096 47.9884 58.1405L49.8403 54.3878L51.6924 58.1405C52.0228 58.8096 52.6609 59.2733 53.3993 59.3806L57.5407 59.9823L54.5441 62.9033Z" fill="#32237E"/>
</svg>
