<svg width="100" height="100" viewBox="0 0 100 100" fill="none" xmlns="http://www.w3.org/2000/svg">
<path d="M19 19.4737C19 14.2415 23.2415 10 28.4737 10H60.1353C62.064 10 63.9159 10.7562 65.2933 12.1064L74.8431 21.4673L78.0783 24.9439C79.3473 26.3075 80.0526 28.1009 80.0526 29.9636V80.5263C80.0526 85.7585 75.8112 90 70.5789 90H28.4737C23.2415 90 19 85.7585 19 80.5263V19.4737Z" stroke="#32237E" stroke-width="5.26316"/>
<path d="M62.1562 11.0527V25.7896C62.1562 27.5337 63.57 28.9475 65.3141 28.9475H80.051" stroke="#32237E" stroke-width="5.26316"/>
<path d="M48.4728 45.7895H68.4728M48.4728 58.4211H68.4728M48.4728 71.0527H68.4728M29.5254 43.6198C29.943 44.0403 30.8997 45.0035 31.9791 46.0902C32.3908 46.5047 33.0612 46.5047 33.4728 46.0903L38.9991 40.5264M29.5254 56.2514C29.943 56.6718 30.8997 57.6351 31.9791 58.7217C32.3908 59.1363 33.0612 59.1363 33.4728 58.7218L38.9991 53.1579M29.5254 68.883C29.943 69.3034 30.8997 70.2667 31.9791 71.3533C32.3908 71.7678 33.0612 71.7678 33.4728 71.3534L38.9991 65.7895" stroke="#32237E" stroke-width="5.26316" stroke-linecap="round"/>
</svg>
