<svg width="100" height="100" viewBox="0 0 100 100" fill="none" xmlns="http://www.w3.org/2000/svg">
<path d="M78.8882 9H20.1122C13.9849 9 9 13.9849 9 20.112V78.888C9 85.0151 13.9849 90 20.1122 90H78.8883C85.0153 90 90 85.0151 90 78.888V20.112C90 13.9849 85.0153 9 78.8882 9ZM86.625 78.888C86.625 83.1543 83.1543 86.625 78.8882 86.625H20.1122C15.8458 86.625 12.375 83.1543 12.375 78.888V20.112C12.375 15.8458 15.8458 12.375 20.1122 12.375H78.8883C83.1543 12.375 86.625 15.8458 86.625 20.112V78.888Z" fill="#32237E" stroke="#32237E" stroke-width="2"/>
<path d="M79.875 32.625H19.125C18.1932 32.625 17.4375 33.3805 17.4375 34.3125V64.6875C17.4375 65.6193 18.1932 66.375 19.125 66.375H79.875C80.807 66.375 81.5625 65.6193 81.5625 64.6875V34.3125C81.5625 33.3805 80.807 32.625 79.875 32.625ZM78.1875 63H20.8125V36H78.1875V63Z" fill="#32237E" stroke="#32237E" stroke-width="2"/>
<path d="M29.25 56.25C28.3182 56.25 27.5625 57.0057 27.5625 57.9375C27.5625 58.8693 28.3182 59.625 29.25 59.625H39.375C40.307 59.625 41.0625 58.8693 41.0625 57.9375C41.0625 57.0057 40.307 56.25 39.375 56.25H36V42.75H39.375C40.307 42.75 41.0625 41.9945 41.0625 41.0625C41.0625 40.1305 40.307 39.375 39.375 39.375H29.25C28.3182 39.375 27.5625 40.1305 27.5625 41.0625C27.5625 41.9945 28.3182 42.75 29.25 42.75H32.625V56.25H29.25Z" fill="#32237E" stroke="#32237E" stroke-width="2"/>
</svg>
