<svg id="Layer_1" data-name="Layer 1" xmlns="http://www.w3.org/2000/svg" viewBox="0 0 847 920"><defs><style>.cls-1,.cls-10,.cls-11,.cls-12,.cls-13,.cls-14,.cls-15,.cls-16,.cls-17,.cls-18,.cls-19,.cls-2,.cls-20,.cls-3,.cls-4,.cls-5,.cls-6,.cls-7,.cls-8,.cls-9{fill:none;stroke-opacity:0.4;}.cls-1,.cls-7{stroke:#babf69;}.cls-1{stroke-width:123.33px;}.cls-2{stroke:#bf6969;}.cls-2,.cls-3,.cls-4{stroke-width:82.22px;}.cls-3,.cls-8{stroke:#9bbf69;}.cls-12,.cls-4{stroke:#69bf91;}.cls-5{stroke:#bfa669;}.cls-10,.cls-11,.cls-12,.cls-13,.cls-14,.cls-15,.cls-16,.cls-17,.cls-18,.cls-19,.cls-20,.cls-5,.cls-6,.cls-7,.cls-8,.cls-9{stroke-width:41.11px;}.cls-6{stroke:#bf6987;}.cls-9{stroke:#bf8769;}.cls-10{stroke:#7dbf69;}.cls-11{stroke:#69bf73;}.cls-13{stroke:#69bfb0;}.cls-14{stroke:#69b0bf;}.cls-15{stroke:#6991bf;}.cls-16{stroke:#6973bf;}.cls-17{stroke:#7d69bf;}.cls-18{stroke:#9b69bf;}.cls-19{stroke:#ba69bf;}.cls-20{stroke:#bf69a6;}.cls-21{fill:#d7d4d5;}.cls-22,.cls-26{isolation:isolate;font-family:ArialMT, Arial;}.cls-22,.cls-60{font-size:24px;}.cls-23{letter-spacing:-0.07em;}.cls-24{letter-spacing:-0.06em;}.cls-25{letter-spacing:-0.04em;}.cls-26{font-size:11px;}.cls-27{fill:#d4d4d7;}.cls-28,.cls-36{font-size:12px;}.cls-28,.cls-36,.cls-45,.cls-60,.cls-65{font-family:MyriadPro-Regular, Myriad Pro;}.cls-29{letter-spacing:0em;}.cls-30,.cls-40{font-size:21px;font-family:MyriadPro-Bold, Myriad Pro;}.cls-30{fill:#1c1651;}.cls-30,.cls-41,.cls-43,.cls-44,.cls-64{font-weight:700;}.cls-31{letter-spacing:0em;}.cls-32{letter-spacing:-0.02em;}.cls-33{letter-spacing:-0.01em;}.cls-34{letter-spacing:0em;}.cls-35{letter-spacing:-0.02em;}.cls-36,.cls-46{letter-spacing:-0.01em;}.cls-37{letter-spacing:0em;}.cls-38{letter-spacing:0.01em;}.cls-39{letter-spacing:0em;}.cls-42{letter-spacing:0em;}.cls-43{letter-spacing:0em;}.cls-44{letter-spacing:-0.01em;}.cls-45{letter-spacing:0em;}.cls-47{letter-spacing:0em;}.cls-48{letter-spacing:-0.01em;}.cls-49{letter-spacing:-0.01em;}.cls-50{letter-spacing:0.01em;}.cls-51{letter-spacing:0em;}.cls-52{letter-spacing:0.02em;}.cls-53{letter-spacing:-0.01em;}.cls-54{letter-spacing:-0.01em;}.cls-55{letter-spacing:0em;}.cls-56{letter-spacing:-0.01em;}.cls-57{letter-spacing:-0.01em;}.cls-58{letter-spacing:-0.01em;}.cls-59{letter-spacing:0em;}.cls-61{letter-spacing:0.01em;}.cls-62{letter-spacing:0em;}.cls-63{letter-spacing:-0.03em;}.cls-64{font-size:22px;font-family:Arial-BoldMT, Arial;}.cls-65{font-size:8px;}.cls-66{letter-spacing:-0.01em;}.cls-67{letter-spacing:0em;}.cls-68{letter-spacing:0.01em;}.cls-69{letter-spacing:0em;}.cls-70{letter-spacing:-0.01em;}.cls-71{letter-spacing:-0.01em;}.cls-72{letter-spacing:0.01em;}.cls-73{letter-spacing:0em;}.cls-74{letter-spacing:-0.01em;}.cls-75{letter-spacing:0em;}.cls-76{letter-spacing:-0.01em;}</style></defs><title>Artboard 1</title><path class="cls-1" d="M30,485.28c189.25,0,189.25-26.11,378.5-26.11"/><path class="cls-2" d="M30,690.28c189.25,0,189.25,66.11,378.5,66.11"/><path class="cls-3" d="M30,249.17c189.25,0,189.25-5,378.5-5"/><path class="cls-4" d="M438.5,613.06c189.25,0,189.25,15,378.5,15"/><path class="cls-5" d="M30,844.17c189.25,0,189.25,35,378.5,35"/><path class="cls-5" d="M30,761.94c189.25,0,189.25-128.33,378.5-128.33"/><path class="cls-6" d="M438.5,121.39c189.25,0,189.25-25,378.5-25"/><path class="cls-7" d="M30,361.94c189.25,0,189.25-46.11,378.5-46.11"/><path class="cls-7" d="M30,403.06c189.25,0,189.25-36.11,378.5-36.11"/><path class="cls-8" d="M30,105.28c189.25,0,189.25-35,378.5-35"/><path class="cls-8" d="M30,187.5c189.25,0,189.25-15,378.5-15"/><path class="cls-9" d="M30,577.5c189.25,0,189.25,15,378.5,15"/><path class="cls-8" d="M30,310.83c189.25,0,189.25,245.56,378.5,245.56"/><path class="cls-8" d="M30,146.39c189.25,0,189.25-25,378.5-25"/><path class="cls-10" d="M438.5,776.94c189.25,0,189.25,25,378.5,25"/><path class="cls-9" d="M30,620.56c172.5,0,172.5,64.17,345,64.17"/><path class="cls-11" d="M438.5,684.72c189.25,0,189.25,15,378.5,15"/><path class="cls-5" d="M30,803.06c189.25,0,189.25,25,378.5,25"/><path class="cls-12" d="M438.5,551.39c189.25,0,189.25,5,378.5,5"/><path class="cls-13" d="M438.5,828.06c189.25,0,189.25,25,378.5,25"/><path class="cls-14" d="M438.5,879.17c189.25,0,189.25,25,378.5,25"/><path class="cls-15" d="M438.5,459.17c193.08,0,193.08-5,386.17-5"/><path class="cls-15" d="M438.5,418.06c189.25,0,189.25-15,378.5-15"/><path class="cls-15" d="M438.5,500.52c189.25,0,189.25,2.63,378.5,2.63"/><path class="cls-16" d="M438.5,315.83c189.25,0,189.25-15,378.5-15"/><path class="cls-17" d="M438.5,366.94c193.08,0,193.08-15,386.17-15"/><path class="cls-18" d="M438.5,70.28c189.25,0,189.25-25,378.5-25"/><path class="cls-19" d="M438.5,172.5c189.25,0,189.25-25,378.5-25"/><path class="cls-20" d="M437.16,264.81c191.61,11,193.73-25.65,385.33-14.6"/><path class="cls-20" d="M431.52,223.61c194.91,0,194.91-25,389.81-25"/><path class="cls-10" d="M438.5,735.83c189.25,0,189.25,15,378.5,15"/><rect class="cls-21" x="817" y="331.39" width="30" height="41.11"/><rect class="cls-21" y="649.17" width="30" height="82.22"/><text class="cls-22" transform="translate(8 694.13)">D<tspan class="cls-23" x="17.33" y="0">AT</tspan><tspan class="cls-24" x="44.44" y="0">A</tspan></text><rect class="cls-21" y="556.39" width="30" height="84.61"/><text class="cls-22" transform="translate(8 613.06)">IMAGES</text><rect class="cls-21" y="741.39" width="30" height="123.33"/><text class="cls-22" transform="translate(8 810.91)">SOUND</text><rect class="cls-21" y="341.39" width="30" height="205.56"/><text class="cls-22" transform="translate(8 448.02)">S<tspan class="cls-23" x="16.01" y="0">PA</tspan><tspan x="44.46" y="0">TIA</tspan><tspan class="cls-25" x="81.8" y="0">L</tspan></text><rect class="cls-21" y="84.72" width="30" height="246.67"/><rect class="cls-21" x="366.89" y="664.17" width="88.86" height="41.11"/><rect class="cls-21" x="369.83" y="530.83" width="88.86" height="123.33"/><rect class="cls-21" x="366.89" y="715.28" width="88.86" height="82.22"/><rect class="cls-21" x="366.89" y="858.61" width="88.86" height="41.11"/><rect class="cls-21" x="366.89" y="295.28" width="88.86" height="41.11"/><rect class="cls-21" x="366.89" y="100.83" width="88.86" height="41.11"/><text class="cls-26" transform="translate(375 126.94)">distant reading</text><rect class="cls-21" x="369.83" y="397.5" width="88.86" height="123.33"/><rect class="cls-21" x="366.89" y="49.72" width="88.86" height="41.11"/><text class="cls-26" transform="translate(369.83 70.28)">mid-range reading</text><rect class="cls-21" x="366.89" y="807.5" width="88.86" height="41.11"/><rect class="cls-21" x="366.89" y="151.94" width="88.86" height="41.11"/><text class="cls-26" transform="translate(381.17 178.06)">stylometrics</text><rect class="cls-27" x="366.89" y="203.06" width="88.86" height="82.22"/><rect class="cls-21" x="366.89" y="346.39" width="88.86" height="41.11"/><rect class="cls-21" x="817" y="679.17" width="30" height="41.11"/><rect class="cls-21" x="817" y="178.06" width="30" height="41.11"/><text class="cls-26" transform="translate(510.12 208.06)">a digital scholarly edition with collaboratively produced annotations</text><rect class="cls-21" x="817" y="535.83" width="30" height="41.11"/><text class="cls-26" transform="translate(715.81 559)">a digital sound collection</text><rect class="cls-21" x="817" y="482.59" width="30" height="41.11"/><text class="cls-26" transform="translate(484.11 359.44)">a gallery of virtual objects brought together to make a scholarly argument</text><rect class="cls-21" x="817" y="280.28" width="30" height="41.11"/><text class="cls-26" transform="translate(579.93 304.68)">a recreation of historical objects within current spaces</text><rect class="cls-21" x="817" y="586.94" width="30" height="82.22"/><text class="cls-26" transform="translate(640.5 632.33)">a searchable gallery of anotated works</text><rect class="cls-21" x="817" y="781.39" width="30" height="41.11"/><text class="cls-26" transform="translate(678.91 805.79)">a searchable reference collection</text><rect class="cls-21" x="817" y="730.28" width="30" height="41.11"/><text class="cls-26" transform="translate(657.26 754.68)">a searchable, annotated bibliography</text><rect class="cls-21" x="817" y="883.61" width="30" height="41.11"/><text class="cls-26" transform="translate(657.26 904.17)">a sonic recreation of a historical event</text><rect class="cls-21" x="817" y="832.5" width="30" height="41.11"/><text class="cls-26" transform="translate(692.35 853.06)">a sonic representation of data</text><rect class="cls-21" x="817" y="229.17" width="30" height="41.11"/><text class="cls-26" transform="translate(692.35 249.72)">accurate authorship attribution</text><rect class="cls-21" x="817" y="75.83" width="30" height="41.11"/><text class="cls-26" transform="translate(524.12 100.24)">an understanding of change in literary language usage over time</text><rect class="cls-21" x="817" y="433.61" width="30" height="41.11"/><text class="cls-26" transform="translate(496.79 459.17)">correlation of historically referenced places with current GIS locations</text><rect class="cls-21" x="817" y="382.5" width="30" height="41.11"/><text class="cls-26" transform="translate(519.44 403.06)">correlation of socio-economic conditions with geographic positions</text><text class="cls-26" transform="translate(764.69 503.15)">digitized maps</text><rect class="cls-21" x="817" y="24.72" width="30" height="41.11"/><text class="cls-26" transform="translate(546.03 49.72) rotate(0.05)">perception of variations in narrative structure and composition</text><rect class="cls-21" x="817" y="126.94" width="30" height="41.11"/><text class="cls-26" transform="translate(754.4 151.35)">prosody analysis</text><text class="cls-28" transform="translate(375 690.28)">deep lea<tspan class="cls-29" x="42.79" y="0">r</tspan><tspan x="46.76" y="0">ning</tspan></text><text class="cls-30" transform="translate(16 35.35)"><tspan class="cls-31">I</tspan><tspan x="6.09" y="0">f </tspan><tspan class="cls-32" x="17.49" y="0">m</tspan><tspan x="35.15" y="0">y </tspan><tspan class="cls-33" x="50.38" y="0">r</tspan><tspan x="58.19" y="0">esea</tspan><tspan class="cls-33" x="100.57" y="0">r</tspan><tspan x="108.38" y="0">ch m</tspan><tspan class="cls-33" x="152.46" y="0">a</tspan><tspan class="cls-34" x="163.38" y="0">t</tspan><tspan x="170.98" y="0">erials </tspan><tspan x="0" y="25.2">a</tspan><tspan class="cls-33" x="11.09" y="25.2">r</tspan><tspan class="cls-35" x="18.9" y="25.2">e</tspan><tspan x="29.65" y="25.2">...</tspan></text><text class="cls-36" transform="translate(375 244.17)">t<tspan class="cls-37" x="3.9" y="0">e</tspan><tspan class="cls-38" x="9.88" y="0">x</tspan><tspan class="cls-39" x="15.59" y="0">t en</tspan><tspan x="34.78" y="0">c</tspan><tspan class="cls-39" x="40.08" y="0">oding</tspan></text><text class="cls-40" transform="translate(344.26 26.22)"><tspan class="cls-41">then I <tspan class="cls-42" x="57.88" y="0">c</tspan><tspan x="67.43" y="0">an use a </tspan></tspan><tspan class="cls-41" x="0" y="25.2">DH meth</tspan><tspan class="cls-43" x="82.49" y="25.2">o</tspan><tspan class="cls-44" x="94.67" y="25.2">d</tspan><tspan class="cls-41" x="106.99" y="25.2">..</tspan><tspan class="cls-45" x="117.91" y="25.2">.</tspan></text><text class="cls-28" transform="translate(382.15 309.35)">au<tspan class="cls-46" x="12.4" y="0">g</tspan><tspan x="19.03" y="0">me</tspan><tspan class="cls-47" x="35.05" y="0">n</tspan><tspan class="cls-48" x="41.66" y="0">t</tspan><tspan x="45.56" y="0">ed </tspan><tspan class="cls-49" x="13.69" y="14.4">r</tspan><tspan x="17.49" y="14.4">eali</tspan><tspan class="cls-50" x="34.93" y="14.4">t</tspan><tspan class="cls-51" x="39.01" y="14.4">y</tspan></text><text class="cls-28" transform="translate(393.34 364.19)">vi<tspan class="cls-52" x="8.58" y="0">r</tspan><tspan x="12.79" y="0">tual </tspan><tspan class="cls-49" x="0.51" y="14.4">r</tspan><tspan x="4.31" y="14.4">eali</tspan><tspan class="cls-50" x="21.75" y="14.4">t</tspan><tspan class="cls-51" x="25.83" y="14.4">y</tspan></text><text class="cls-28" transform="translate(373.41 456.54)">geo<tspan class="cls-49" x="19.31" y="0">r</tspan><tspan x="23.11" y="0">e</tspan><tspan class="cls-53" x="29.12" y="0">f</tspan><tspan x="32.47" y="0">e</tspan><tspan class="cls-54" x="38.48" y="0">r</tspan><tspan x="42.29" y="0">encing</tspan></text><text></text><text class="cls-28" transform="translate(385.61 566.85)">a schola<tspan class="cls-29" x="40.32" y="0">r</tspan><tspan x="44.29" y="0">ly </tspan><tspan class="cls-46" x="6.89" y="14.4">c</tspan><tspan x="12.19" y="14.4">o</tspan><tspan class="cls-47" x="18.78" y="14.4">n</tspan><tspan class="cls-46" x="25.39" y="14.4">t</tspan><tspan x="29.29" y="14.4">e</tspan><tspan class="cls-47" x="35.3" y="14.4">n</tspan><tspan x="41.91" y="14.4">t </tspan><tspan x="4.07" y="28.8">manage</tspan><tspan x="45.02" y="28.8">-</tspan><tspan x="13.09" y="43.2">me</tspan><tspan class="cls-55" x="29.1" y="43.2">n</tspan><tspan x="35.72" y="43.2">t </tspan><tspan x="8.89" y="57.6">s</tspan><tspan class="cls-46" x="13.64" y="57.6">y</tspan><tspan x="19.22" y="57.6">s</tspan><tspan class="cls-56" x="23.97" y="57.6">t</tspan><tspan x="27.87" y="57.6">em</tspan></text><text class="cls-28" transform="translate(385.02 756.39)">a d<tspan class="cls-55" x="15.1" y="0">a</tspan><tspan class="cls-51" x="20.83" y="0">tabase</tspan></text><text class="cls-28" transform="translate(385.15 828.92)">sonific<tspan class="cls-55" x="32.46" y="0">a</tspan><tspan x="38.2" y="0">tion</tspan></text><text class="cls-28" transform="translate(396.4 872.85)">a<tspan class="cls-46" x="5.78" y="0">c</tspan><tspan x="11.09" y="0">oustic </tspan><tspan x="-5.79" y="14.4">simul</tspan><tspan class="cls-55" x="21.22" y="14.4">a</tspan><tspan x="26.96" y="14.4">tion</tspan></text><text class="cls-28" transform="translate(526.51 699.72)">image <tspan class="cls-57" x="33.86" y="0">r</tspan><tspan x="37.67" y="0">e</tspan><tspan class="cls-56" x="43.68" y="0">c</tspan><tspan x="48.98" y="0">o</tspan><tspan class="cls-56" x="55.57" y="0">g</tspan><tspan x="62.21" y="0">nition and ide</tspan><tspan class="cls-55" x="131.59" y="0">n</tspan><tspan x="138.2" y="0">tific</tspan><tspan class="cls-55" x="156.63" y="0">a</tspan><tspan x="162.37" y="0">tion ac</tspan><tspan class="cls-49" x="196.1" y="0">r</tspan><tspan x="199.91" y="0">oss la</tspan><tspan class="cls-58" x="227.16" y="0">r</tspan><tspan class="cls-59" x="230.99" y="0">ge sets of images</tspan></text><text class="cls-60" transform="translate(4.52 211.11)">TE<tspan class="cls-61" x="23.74" y="0">X</tspan><tspan class="cls-62" x="37.63" y="0">T</tspan><tspan class="cls-63" x="49.56" y="0">U</tspan><tspan x="64.27" y="0">AL</tspan></text><text class="cls-64" transform="translate(682.63 30.94)">to produce....</text><text class="cls-65" transform="translate(7 914)"><tspan class="cls-66">T</tspan><tspan x="3.92" y="0">his </tspan><tspan class="cls-49" x="15.1" y="0">w</tspan><tspan x="20.9" y="0">o</tspan><tspan class="cls-67" x="25.3" y="0">r</tspan><tspan x="27.94" y="0">k is li</tspan><tspan class="cls-46" x="43.89" y="0">c</tspan><tspan x="47.42" y="0">ensed </tspan><tspan class="cls-46" x="69.25" y="0">t</tspan><tspan x="71.85" y="0">o </tspan><tspan class="cls-67" x="77.94" y="0">R</tspan><tspan x="82.28" y="0">ennie </tspan><tspan class="cls-68" x="102.74" y="0">M</tspan><tspan x="109.22" y="0">app under a </tspan><tspan class="cls-69" x="151.11" y="0">C</tspan><tspan class="cls-49" x="155.73" y="0">r</tspan><tspan x="158.26" y="0">e</tspan><tspan class="cls-47" x="162.27" y="0">a</tspan><tspan x="166.09" y="0">ti</tspan><tspan class="cls-70" x="170.61" y="0">v</tspan><tspan x="174.38" y="0">e </tspan><tspan class="cls-71" x="180.08" y="0">C</tspan><tspan x="184.64" y="0">ommons </tspan><tspan class="cls-49" x="216.07" y="0">A</tspan><tspan x="220.88" y="0">tt</tspan><tspan class="cls-67" x="226.18" y="0">r</tspan><tspan x="228.83" y="0">ibution 4.0 </tspan><tspan class="cls-72" x="266.27" y="0">I</tspan><tspan class="cls-73" x="268.26" y="0">n</tspan><tspan class="cls-74" x="272.67" y="0">t</tspan><tspan x="275.27" y="0">e</tspan><tspan class="cls-67" x="279.28" y="0">r</tspan><tspan class="cls-75" x="281.92" y="0">n</tspan><tspan class="cls-73" x="286.36" y="0">a</tspan><tspan x="290.19" y="0">tional Li</tspan><tspan class="cls-46" x="316.63" y="0">c</tspan><tspan x="320.16" y="0">ens</tspan><tspan class="cls-76" x="331.78" y="0">e</tspan><tspan x="335.69" y="0">.</tspan></text></svg>