<svg fill="#002F6C" xmlns="http://www.w3.org/2000/svg" xmlns:xlink="http://www.w3.org/1999/xlink" viewBox="0 0 100 100" version="1.1" x="0px" y="0px"><title>i4 copy 2</title><desc>Created with Sketch.</desc><g stroke="none" stroke-width="1" fill="none" fill-rule="evenodd"><path d="M37.7993548,58.7022581 L51.7377419,37.6490323 L66.5616129,49.0587097 L92.6509677,15.1964516 L89.2009677,12.5390323 L65.7670968,42.9522581 L50.6887097,31.3451613 L36.486129,52.796129 L25.5670968,46.1254839 L7,58.8532258 L9.46290323,62.4454839 L25.7035484,51.3125806 L37.7993548,58.7022581 Z M15.9922581,19.233871 L78.8509677,19.233871 L82.5787097,14.3951613 L51.9980645,14.3951613 L51.9980645,6 L47.1593548,6 L47.1593548,14.3951613 L11.1535484,14.3951613 L11.1535484,51.0203226 L15.9922581,47.7029032 L15.9922581,19.233871 Z M83.1641935,34.2483871 L88.0029032,27.9677419 L88.0029032,75.3629032 L53.9674194,75.3629032 L68.9945161,90.3909677 L65.5735484,93.8119355 L49.5787097,77.816129 L33.5829032,93.8119355 L30.1609677,90.3909677 L45.1890323,75.3629032 L11.1535484,75.3629032 L11.1535484,66.2729032 L15.9922581,62.9554839 L15.9922581,70.5241935 L83.1641935,70.5241935 L83.1641935,34.2483871 Z" fill="#002F6C"></path></g></svg>